<svg xlmns="http://www.w3.org/2000/svg">
      <symbol viewBox="0 0 48 48" id="vk-icon">
        <path d="M0 0h48v48H0z"/><g clip-path="url(#a)"><path fill="#fff" fill-rule="evenodd" d="M35.5 18c.1-.6 0-1-.8-1H32c-.6 0-1 .3-1.1.7 0 0-1.3 3.2-3.2
          5.3-.7.6-1 .8-1.3.8-.1 0-.4-.2-.4-.7v-5.2c0-.6-.2-.9-.7-.9h-4.1c-.5 0-.7.3-.7.6 0 .6 1 .8 1 2.5V24c0 .8-.1 1-.5 1-.9 0-3-3.2-4.3-6.9-.3-.7-.5-1-1.2-1H13c-.8 0-.9.3-.9.7 0
          .7.9 4.1 4.1 8.6 2.2 3 5.3 4.7 8 4.7 1.7 0 2-.4 2-1v-2.3c0-.8 0-.9.6-.9.4 0 1 .2 2.6 1.7 1.8 1.7 2.1 2.5 3.1 2.5H35c.8 0 1.2-.4 1-1.1-.3-.7-1.1-1.8-2.3-3L32
          25c-.4-.5-.3-.7 0-1.1 0 0 3.2-4.4 3.5-6Z" clip-rule="evenodd"/></g><defs><clipPath id="a"><path fill="#fff" d="M12 12h24v24H12z"/></clipPath></defs>
      </symbol>
      <symbol viewBox="0 0 48 48" id="tg-icon">
        <path d="M0 0h48v48H0z"/><path fill="#fff" d="m34.4 16.6-3.1 15c-.3 1-.9 1.3-1.8.8l-4.8-3.6-2.3 2.3c-.3.2-.5.4-1
        .4l.3-4.9 9-8c.4-.4-.1-.6-.6-.3l-11 7-4.8-1.5c-1-.3-1-1 .2-1.5L33 15c.9-.3 1.6.2 1.3 1.5Z"/>
      </symbol>
      <symbol viewBox="0 0 48 48" id="youtube-icon">
        <path d="M0 0h48v48H0z"/><path fill="#fff" d="M31.2 17H16.8a2.9 2.9 0 0 0-2.8 2.8v8.3c0
        1.6 1.3 2.9 2.8 2.9h14.4c1.6 0 2.8-1.3 2.8-2.8v-8.4c0-1.5-1.2-2.8-2.8-2.8ZM21 27.4v-6.8L28 24 21 27.4Z"/>
      </symbol>
      <symbol viewBox="0 0 29 35" id="academy-logo">
        <path d="M14.7.4h-.1L1 1.8v24.8l13.5 8 13.3-8V1.8L14.8.4ZM26 12.6 14.5 5.7l-.2-.2v.1L3 12.6v-9l11.4-1.3 11.7 1.2v9ZM14.4 7.2 26 14l-4.4 2.7-7.2-4.3v1.4l6
        3.6-1 .4-5-3v1.4l3.8 2.3-.8.6-3-1.9v1.4l2 1.1-1.9 1.1-11.3-6.6 11.3-6.9ZM3 15.6l11.4 6.8v1l-7.9-4.8V20l8 4.9v1l-8-4.6v1.3l8 4.8 8.2-4.8v-5.3l3.3-2v10l-11.4 7-11.6-6.8v-10Z"/>
      </symbol>
</svg>
