<svg width="26" height="19" fill="none" xmlns="http://www.w3.org/2000/svg"><path d="M25.77 1.552 24.533.263c-.337-.35-1.011-.35-1.349 0L9.808 14.2l-6.97-7.26c-.337-.352-1.011-.352-1.349 0L.253 8.226c-.337.35-.337 1.053 0 1.405l8.768 9.134c.225.234.45.234.674.234.225 0 .45-.117.675-.234l15.175-15.81c.562-.35.562-.936.225-1.404Z" fill="#81B3D2"/><path d="M25.77 1.552 24.533.263c-.337-.35-1.011-.35-1.349 0L9.808 14.2l-6.97-7.26c-.337-.352-1.011-.352-1.349 0L.253 8.226c-.337.35-.337 1.053 0 1.405l8.768 9.134c.225.234.45.234.674.234.225 0 .45-.117.675-.234l15.175-15.81c.562-.35.562-.936.225-1.404Z" fill="#000" fill-opacity=".2"/></svg>